# AST/ASF file generated using VICON BodyLanguage
# -----------------------------------------------
:version 1.10
:name VICON
:units
  mass 1.0
  length 0.45
  angle deg
:documentation
   .ast/.asf automatically generated from VICON data using
   VICON BodyBuilder and BodyLanguage model FoxedUp or BRILLIANT.MOD
:root
   order TX TY TZ RX RY RZ
   axis XYZ
   position 0 0 0  
   orientation 0 0 0 
:bonedata
  begin
     id 1 
     name lhipjoint
     direction 0.692814 -0.645514 0.321437 
     length 2.38754 
     axis 0 0 0  XYZ
  end
  begin
     id 2 
     name lfemur
     direction 0.34202 -0.939693 0  
     length 6.41921  
     axis 0 0 20  XYZ
    dof rx ry rz
    limits (-160.0 20.0)
           (-70.0 70.0)
           (-60.0 70.0)
  end
  begin
     id 3 
     name ltibia
     direction 0.34202 -0.939693 0   
     length 6.98247   
     axis 0 0 20   XYZ
    dof rx
    limits (-10.0 170.0)
  end
  begin
     id 4 
     name lfoot
     direction 0.0947186 -0.260237 0.960888   
     length 1.83034   
     axis -90 7.62852e-016 20   XYZ
    dof rx rz
    limits (-45.0 90.0)
           (-70.0 20.0)
  end
  begin
     id 5 
     name ltoes
     direction 1.53538e-011 -4.21952e-011 1   
     length 0.920499   
     axis -90 7.62852e-016 20   XYZ
    dof rx
    limits (-90.0 20.0)
  end
  begin
     id 6 
     name rhipjoint
     direction -0.631686 -0.693949 0.345555   
     length 2.2209  
     axis 0 0 0  XYZ 
  end
  begin
     id 7 
     name rfemur
     direction -0.34202 -0.939693 0   
     length 6.49542   
     axis 0 0 -20   XYZ
    dof rx ry rz
    limits (-160.0 20.0)
           (-70.0 70.0)
           (-70.0 60.0)
  end
  begin
     id 8 
     name rtibia
     direction -0.34202 -0.939693 0   
     length 7.21712   
     axis 0 0 -20   XYZ
    dof rx
    limits (-10.0 170.0)
 end
 begin
     id 9 
     name rfoot
     direction -0.0825378 -0.226771 0.970444   
     length 1.89724  
     axis -90 -7.62852e-016 -20   XYZ
    dof rx rz
    limits (-45.0 90.0)
           (-20.0 70.0)
  end
  begin
     id 10 
     name rtoes
     direction -1.53515e-011 -4.22016e-011 1   
     length 0.955868   
     axis -90 -7.62852e-016 -20   XYZ
    dof rx
    limits (-90.0 20.0)
  end
  begin
     id 11 
     name lowerback
     direction -0.0104711 0.984802 -0.173368   
     length 1.84931   
     axis 0 0 0   XYZ
    dof rx ry rz
    limits (-20.0 45.0)
           (-30.0 30.0)
           (-30.0 30.0)
  end
  begin
     id 12 
     name upperback
     direction -0.00286433 0.999996 -0.000382853   
     length 1.85768   
     axis 0 0 0   XYZ
    dof rx ry rz
    limits (-20.0 45.0)
           (-30.0 30.0)
           (-30.0 30.0)
  end
  begin
     id 13 
     name thorax
     direction 0.00167534 0.996793 0.0800069   
     length 1.92   
     axis 0 0 0   XYZ
    dof rx ry rz
    limits (-20.0 45.0)
           (-30.0 30.0)
           (-30.0 30.0)
  end
  begin
     id 14 
     name lowerneck
     direction -0.0672491 0.995415 0.068018   
     length 1.58923   
     axis 0 0 0   XYZ
    dof rx ry rz
    limits (-20.0 45.0)
           (-30.0 30.0)
           (-30.0 30.0)
  end
  begin
     id 15 
     name upperneck
     direction 0.0958019 0.982476 -0.159884   
     length 1.60189   
     axis 0 0 0   XYZ
    dof rx ry rz
    limits (-20.0 45.0)
           (-30.0 30.0)
           (-30.0 30.0)
  end
  begin
     id 16
     name head
     direction 0.032989 0.997338 -0.0650226  
     length 1.61681  
     axis 0 0 0   XYZ
    dof rx ry rz
    limits (-20.0 45.0)
           (-30.0 30.0)
           (-30.0 30.0)
  end
  begin
     id 17 
     name lclavicle
     direction 0.954279 0.298875 -0.00496069  
     length 2.99449  
     axis 0 0 0   XYZ
    dof ry rz
    limits (-20.0 10.0)
           (0.0 20.0)
  end
  begin
     id 18 
     name lhumerus
     direction 1 -4.48985e-011 -4.2057e-027   
     length 4.79185   
     axis 180 -30 -90   XYZ
    dof rx ry rz
    limits (-60.0 90.0)
           (-90.0 90.0)
           (-90.0 90.0)
  end
  begin
     id 19
     name lradius
     direction 1 -4.48945e-011 1.15441e-028   
     length 2.65553   
     axis 180 -30 -90   XYZ
    dof rx
    limits (-10.0 170.0)
  end
  begin
     id 20
     name lwrist
     direction 1 -4.4899e-011 4.8894e-028   
     length 1.32777   
     axis -2.56392e-016 90 90   XYZ
    dof ry
    limits (-180.0 0.0)
 end
  begin
     id 21 
     name lhand
     direction 1 -4.48908e-011 9.7788e-028   
     length 0.743904   
     axis -6.23971e-016 90 90   XYZ
    dof rx rz
    limits (-90.0 90.0)
           (-45.0 45.0)
  end
  begin
     id 22 
     name lfingers
     direction 1 -4.49068e-011 1.95576e-027   
     length 0.599754   
     axis -1.24794e-015 90 90   XYZ
    dof rx
    limits (0.0 90.0)
  end
  begin
     id 23
     name lthumb
     direction 0.707107 -6.34883e-011 0.707107   
     length 0.861131   
     axis -90 45 2.85299e-015   XYZ
    dof rx rz
    limits (-45.0 45.0)
           (-45.0 45.0)
  end
  begin
     id 24 
     name rclavicle
     direction -0.957921 0.286916 0.00811568   
     length 3.06817  
     axis 0 0 0   XYZ 
    dof ry rz
    limits (-10.0 20.0)
           (-20.0 0.0)
  end
  begin
     id 25 
     name rhumerus
     direction -1 -4.48971e-011 -3.07942e-027  
     length 4.77254   
     axis 180 30 90   XYZ
    dof rx ry rz
    limits (-90.0 60.0)
           (-90.0 90.0)
           (-90.0 90.0)
  end
  begin
     id 26 
     name rradius
     direction -1 -4.48957e-011 -9.6815e-028   
     length 2.75995   
     axis 180 30 90   XYZ
    dof rx
    limits (-10.0 170.0)
  end
  begin
     id 27 
     name rwrist
     direction -1 -4.48979e-011 4.8894e-028   
     length 1.37997   
     axis -2.56392e-016 -90 -90   XYZ
    dof ry
    limits (-180.0 0.0)
  end
  begin
     id 28
     name rhand
     direction -1 -4.48906e-011 9.7788e-028   
     length 0.701619   
     axis -6.23971e-016 -90 -90   XYZ
    dof rx rz
    limits (-90.0 90.0)
           (-45.0 45.0)
  end
  begin
     id 29
     name rfingers
     direction -1 -4.49018e-011 1.95576e-027   
     length 0.565663   
     axis -1.24794e-015 -90 -90   XYZ
    dof rx
    limits (0.0 90.0)
  end
  begin
     id 30
     name rthumb
     direction -0.707107 -6.34881e-011 0.707107   
     length 0.812183   
     axis -90 -45 -2.85299e-015   XYZ
    dof rx rz
    limits (-45.0 45.0)
           (-45.0 45.0)
  end
:hierarchy
  begin
    root lhipjoint rhipjoint lowerback
    lhipjoint lfemur
    lfemur ltibia
    ltibia lfoot
    lfoot ltoes
    rhipjoint rfemur
    rfemur rtibia
    rtibia rfoot
    rfoot rtoes
    lowerback upperback
    upperback thorax
    thorax lowerneck lclavicle rclavicle
    lowerneck upperneck
    upperneck head
    lclavicle lhumerus
    lhumerus lradius
    lradius lwrist
    lwrist lhand lthumb
    lhand lfingers
    rclavicle rhumerus
    rhumerus rradius
    rradius rwrist
    rwrist rhand rthumb
    rhand rfingers
  end

#!OML:ASF F:\VICON\USERDATA\INSTALL\rory3\rory3.ASF
:FULLY-SPECIFIED
:DEGREES
145
root -5.56423 15.629 5.36324 -168.748 54.3356 -166.589
lowerback 10.701 1.0786 6.29598
upperback -1.15539 2.42159 1.47885
thorax -7.05528 0.989225 -2.38094
lowerneck -11.3006 -8.17225 -11.3989
upperneck 17.1623 -10.7992 10.0528
head 8.3701 -4.89391 4.02161
rclavicle -1.07518e-013 -3.97569e-016
rhumerus -23.7934 -0.141903 -87.429
rradius 25.6359
rwrist 13.8057
rhand -15.862 14.9135
rfingers 7.12502
rthumb 10.3332 -14.8126
lclavicle -1.07518e-013 -3.97569e-016
lhumerus -34.3329 10.5285 81.2126
lradius 22.4888
lwrist -4.00482
lhand -12.6099 13.5728
lfingers 7.12502
lthumb 13.4692 43.1173
rfemur 5.00601 2.92759 35.5614
rtibia 16.385
rfoot -16.7651 -15.1439
rtoes 1.45996
lfemur -31.7527 -7.38249 -13.1675
ltibia 36.3549
lfoot -10.3062 12.34
ltoes -4.53333
146
root -5.44865 15.6297 5.28718 -168.697 54.6291 -166.477
lowerback 10.711 1.13936 6.29881
upperback -1.10878 2.50049 1.46807
thorax -7.00362 1.03004 -2.40603
lowerneck -10.8783 -8.04946 -11.6036
upperneck 16.5466 -10.6781 10.481
head 8.1114 -4.8353 4.22609
rclavicle -5.21064e-014 -2.52457e-014
rhumerus -23.735 0.715505 -87.9147
rradius 26.0701
rwrist 13.451
rhand -16.0089 14.0283
rfingers 7.12502
rthumb 10.1915 -15.7048
lclavicle -5.21064e-014 -2.52457e-014
lhumerus -34.5807 10.681 81.098
lradius 22.2979
lwrist -4.32841
lhand -12.5343 13.4912
lfingers 7.12502
lthumb 13.5421 43.0309
rfemur 6.17854 3.03688 35.6125
rtibia 15.3879
rfoot -16.5472 -15.1043
rtoes 1.46965
lfemur -31.558 -7.93268 -12.7864
ltibia 34.407
lfoot -10.6407 13.1676
ltoes -3.16668
147
root -5.33238 15.631 5.2116 -168.632 54.9803 -166.501
lowerback 10.6208 1.22568 6.16206
upperback -1.10732 2.58643 1.44378
thorax -6.94711 1.07796 -2.36556
lowerneck -10.6464 -7.96391 -11.7131
upperneck 16.174 -10.5833 10.7093
head 7.95443 -4.79139 4.33842
rclavicle -6.82577e-014 1.64991e-014
rhumerus -23.6108 1.08081 -88.2227
rradius 26.3707
rwrist 13.201
rhand -15.8341 12.6393
rfingers 7.12502
rthumb 10.3602 -17.0855
lclavicle -6.82577e-014 1.64991e-014
lhumerus -34.8966 10.8032 81.0268
lradius 22.2836
lwrist -4.49045
lhand -12.3522 13.7957
lfingers 7.12502
lthumb 13.7176 43.3236
rfemur 7.29329 3.08634 35.541
rtibia 14.2209
rfoot -16.1412 -14.9914
rtoes 0.647807
lfemur -31.4913 -8.35979 -12.4746
ltibia 32.5685
lfoot -10.9924 13.9089
ltoes -2.77302
148
root -5.21311 15.6335 5.13574 -168.316 55.4211 -166.159
lowerback 10.5357 1.36337 6.11991
upperback -1.05998 2.7616 1.51148
thorax -6.83853 1.17188 -2.29398
lowerneck -10.6552 -7.93599 -11.7431
upperneck 16.0098 -10.531 10.7063
head 7.89701 -4.77285 4.34737
rclavicle 1.43771e-013 -2.92213e-014
rhumerus -23.4531 1.36636 -88.3941
rradius 26.5736
rwrist 12.8939
rhand -15.9997 12.7574
rfingers 7.12502
rthumb 10.2004 -16.9753
lclavicle 1.43771e-013 -2.92213e-014
lhumerus -35.0888 11.0927 80.8883
lradius 22.1861
lwrist -5.13063
lhand -11.8303 14.1608
lfingers 7.12502
lthumb 14.2205 43.654
rfemur 8.58418 3.09526 35.6588
rtibia 12.8449
rfoot -15.5213 -14.8487
rtoes -0.725635
lfemur -31.3654 -8.61529 -11.9497
ltibia 30.8948
lfoot -11.1708 14.5186
ltoes -2.57763
149
root -5.09284 15.6344 5.0548 -167.79 55.835 -165.508
lowerback 10.4436 1.50297 6.30648
upperback -0.982593 2.97062 1.60524
thorax -6.68309 1.27762 -2.32636
lowerneck -10.7095 -7.9202 -11.6964
upperneck 15.9066 -10.4965 10.6402
head 7.86209 -4.76076 4.31938
rclavicle 4.02539e-015 2.40529e-014
rhumerus -23.3712 1.79809 -88.5855
rradius 26.8382
rwrist 12.5929
rhand -15.7655 13.9674
rfingers 7.12502
rthumb 10.4263 -15.7541
lclavicle 4.02539e-015 2.40529e-014
lhumerus -35.2271 11.4027 80.6976
lradius 21.9676
lwrist -5.83628
lhand -11.4378 14.312
lfingers 7.12502
lthumb 14.5987 43.7782
rfemur 10.0275 3.05239 35.9421
rtibia 11.2842
rfoot -14.7752 -14.7144
rtoes -1.93583
lfemur -31.2079 -9.09181 -11.1693
ltibia 29.4123
lfoot -11.5574 15.2015
ltoes -2.42902
150
root -4.97213 15.6368 4.96834 -167.216 56.2459 -164.84
lowerback 10.3564 1.58999 6.55988
upperback -0.951072 3.11957 1.69159
thorax -6.5805 1.349 -2.39491
lowerneck -10.8203 -7.85851 -11.6792
upperneck 15.874 -10.3934 10.5823
head 7.85435 -4.71427 4.30659
rclavicle -7.48052e-014 1.59028e-015
rhumerus -23.3446 2.3892 -88.8505
rradius 27.0969
rwrist 12.2006
rhand -15.1025 14.8158
rfingers 7.12502
rthumb 11.0659 -14.8725
lclavicle -7.48052e-014 1.59028e-015
lhumerus -35.4646 11.6886 80.5583
lradius 21.6672
lwrist -5.88648
lhand -11.7913 14.1738
lfingers 7.12502
lthumb 14.2581 43.6644
rfemur 11.6034 3.27936 36.2321
rtibia 9.39743
rfoot -13.7236 -14.846
rtoes -2.72395
lfemur -31.1231 -9.70803 -10.3331
ltibia 28.1701
lfoot -12.1643 15.8568
ltoes -2.458
151
root -4.85054 15.6389 4.87873 -166.63 56.6108 -164.182
lowerback 10.233 1.64953 6.8586
upperback -0.93485 3.23339 1.76483
thorax -6.47301 1.40142 -2.49533
lowerneck -10.8474 -7.80014 -11.7599
upperneck 15.8045 -10.2995 10.6162
head 7.83134 -4.67299 4.34182
rclavicle -3.19671e-014 9.14409e-015
rhumerus -23.3586 2.86694 -89.1205
rradius 27.3268
rwrist 11.886
rhand -14.7916 15.2814
rfingers 7.12502
rthumb 11.3658 -14.3906
lclavicle -3.19671e-014 9.14409e-015
lhumerus -35.7461 12.189 80.2742
lradius 21.3394
lwrist -6.12067
lhand -11.9658 13.9394
lfingers 7.12502
lthumb 14.09 43.4417
rfemur 13.4876 3.46361 36.5245
rtibia 6.93195
rfoot -12.3927 -14.851
rtoes -3.38906
lfemur -31.112 -10.3238 -9.4889
ltibia 27.1922
lfoot -12.8175 16.3038
ltoes -2.14444
152
root -4.72674 15.6376 4.78881 -165.962 56.9633 -163.481
lowerback 10.0402 1.79379 7.17643
upperback -0.943834 3.45454 1.82292
thorax -6.34014 1.50607 -2.63414
lowerneck -10.7606 -7.8209 -11.828
upperneck 15.7271 -10.3243 10.6379
head 7.79852 -4.69119 4.35897
rclavicle -4.23908e-014 2.78299e-014
rhumerus -23.448 2.94369 -89.2613
rradius 27.563
rwrist 11.9218
rhand -14.7028 15.2894
rfingers 7.12502
rthumb 11.4514 -14.3779
lclavicle -4.23908e-014 2.78299e-014
lhumerus -36.0137 12.3618 80.1043
lradius 21.0586
lwrist -6.37258
lhand -11.9243 13.9253
lfingers 7.12502
lthumb 14.1299 43.4248
rfemur 16.0732 3.65195 36.8389
rtibia 3.14561
rfoot -10.5403 -14.7409
rtoes -3.82056
lfemur -31.1719 -10.635 -8.71768
ltibia 26.4503
lfoot -13.4533 16.4165
ltoes -1.66952
153
root -4.6019 15.6346 4.69718 -165.194 57.2821 -162.646
lowerback 9.86761 1.95781 7.52609
upperback -0.95898 3.70997 1.90983
thorax -6.22034 1.62734 -2.76436
lowerneck -10.6779 -7.83687 -11.8432
upperneck 15.6502 -10.3484 10.6443
head 7.76268 -4.70672 4.36248
rclavicle -3.31846e-014 -3.97569e-016
rhumerus -23.5984 3.15879 -89.4221
rradius 27.8241
rwrist 11.7254
rhand -14.7915 14.9953
rfingers 7.12502
rthumb 11.3659 -14.6767
lclavicle -3.31846e-014 -3.97569e-016
lhumerus -36.2625 12.4943 79.9397
lradius 20.7473
lwrist -6.59862
lhand -11.9296 13.8316
lfingers 7.12502
lthumb 14.1248 43.3315
rfemur 18.3152 3.82943 37.1954
rtibia 6.36111e-015
rfoot -8.8956 -14.6115
rtoes -4.20281
lfemur -31.195 -10.8662 -7.93968
ltibia 25.8664
lfoot -14.0699 16.4944
ltoes -1.58934
154
root -4.47663 15.6331 4.60102 -164.355 57.551 -161.672
lowerback 9.75346 2.05284 7.96
upperback -0.985312 3.89314 2.02872
thorax -6.14863 1.70982 -2.89946
lowerneck -10.5691 -7.78088 -11.8086
upperneck 15.5932 -10.2734 10.5896
head 7.71046 -4.67779 4.35111
rclavicle 4.98701e-014 1.33186e-014
rhumerus -23.8125 3.65457 -89.6822
rradius 28.0276
rwrist 11.1709
rhand -14.8576 15.0889
rfingers 7.12502
rthumb 11.3021 -14.5866
lclavicle 4.98701e-014 1.33186e-014
lhumerus -36.5839 12.8844 79.6236
lradius 20.4462
lwrist -6.94169
lhand -11.9482 13.8192
lfingers 7.12502
lthumb 14.1069 43.3203
rfemur 18.917 3.98144 37.5901
rtibia 2.22639e-014
rfoot -8.54136 -14.4749
rtoes -5.39746
lfemur -31.1123 -11.3334 -7.06903
ltibia 25.3649
lfoot -14.7117 16.7629
ltoes -1.61806
155
root -4.347 15.6344 4.50263 -164.029 57.9267 -161.426
lowerback 9.4558 2.16581 7.93208
upperback -0.982868 4.00922 2.04239
thorax -5.96727 1.77585 -2.86868
lowerneck -10.5661 -7.71778 -11.723
upperneck 15.5441 -10.183 10.5002
head 7.67317 -4.63866 4.31852
rclavicle 8.70553e-014 -1.11319e-014
rhumerus -23.9188 3.96383 -89.9104
rradius 28.1084
rwrist 10.7694
rhand -14.7231 15.506
rfingers 7.12502
rthumb 11.4318 -14.1624
lclavicle 8.70553e-014 -1.11319e-014
lhumerus -36.876 13.6191 79.1045
lradius 20.1107
lwrist -7.61658
lhand -11.9254 13.8892
lfingers 7.12502
lthumb 14.1289 43.3888
rfemur 19.4724 4.17668 37.5171
rtibia -3.81667e-014
rfoot -8.24323 -14.1869
rtoes -6.40359
lfemur -31.003 -11.8034 -6.69606
ltibia 24.9145
lfoot -15.3011 17.1625
ltoes -1.94711
156
root -4.21471 15.6365 4.40172 -164.136 58.3937 -161.769
lowerback 9.09927 2.31602 7.57783
upperback -1.01069 4.12315 1.96809
thorax -5.7988 1.84625 -2.74577
lowerneck -10.6922 -7.71348 -11.7746
upperneck 15.6418 -10.1633 10.5044
head 7.72833 -4.62702 4.32748
rclavicle 5.8716e-014 2.22639e-014
rhumerus -24.0019 3.90765 -90.0554
rradius 28.0579
rwrist 10.7949
rhand -14.6885 15.7402
rfingers 7.12502
rthumb 11.4652 -13.9263
lclavicle 5.8716e-014 2.22639e-014
lhumerus -37.1789 14.3424 78.571
lradius 19.7028
lwrist -8.43747
lhand -11.9611 13.869
lfingers 7.12502
lthumb 14.0945 43.371
rfemur 19.9838 4.40437 37.0758
rtibia -3.81667e-014
rfoot -7.84949 -13.8996
rtoes -8.00129
lfemur -30.864 -12.2116 -6.74784
ltibia 24.5468
lfoot -15.8083 17.5917
ltoes -2.16538
157
root -4.08163 15.6381 4.2952 -164.449 58.7916 -162.236
lowerback 8.85174 2.42374 7.25238
upperback -1.06837 4.19874 1.88425
thorax -5.72629 1.89185 -2.65015
lowerneck -10.8612 -7.72731 -11.9207
upperneck 15.9367 -10.1623 10.5384
head 7.86521 -4.6224 4.35965
rclavicle -5.9126e-014 -1.92821e-014
rhumerus -24.2697 4.11821 -90.2192
rradius 28.0691
rwrist 10.689
rhand -14.7514 15.7742
rfingers 7.12502
rthumb 11.4045 -13.8956
lclavicle -5.9126e-014 -1.92821e-014
lhumerus -37.5889 14.945 78.0818
lradius 19.3624
lwrist -9.20149
lhand -11.8771 13.7941
lfingers 7.12502
lthumb 14.1754 43.2905
rfemur 20.5863 4.53608 36.5595
rtibia 3.49861e-014
rfoot -7.21754 -13.576
rtoes -10.2116
lfemur -30.6235 -12.5089 -7.01178
ltibia 24.3896
lfoot -16.0188 17.875
ltoes -2.43994
158
root -3.94694 15.6361 4.1868 -164.565 59.0878 -162.444
lowerback 8.6049 2.49622 7.09652
upperback -1.10741 4.25176 1.8417
thorax -5.62928 1.92415 -2.60145
lowerneck -10.8736 -7.68463 -11.9465
upperneck 15.9828 -10.1002 10.5413
head 7.87655 -4.59297 4.37289
rclavicle -3.55328e-015 -1.37161e-014
rhumerus -24.607 4.47915 -90.3645
rradius 28.1889
rwrist 10.5112
rhand -14.6447 15.8675
rfingers 7.12502
rthumb 11.5074 -13.7967
lclavicle -3.55328e-015 -1.37161e-014
lhumerus -37.9941 15.3653 77.669
lradius 19.0992
lwrist -9.79285
lhand -11.8075 13.7176
lfingers 7.12502
lthumb 14.2425 43.2092
rfemur 21.2158 4.61168 36.1804
rtibia 5.08889e-014
rfoot -6.66515 -13.1213
rtoes -11.901
lfemur -30.3734 -12.3618 -7.32513
ltibia 24.4806
lfoot -15.8704 17.7107
ltoes -2.58082
159
root -3.81378 15.6307 4.07832 -163.834 59.105 -161.686
lowerback 8.35316 2.52546 7.53823
upperback -1.1687 4.32622 1.91677
thorax -5.52103 1.95335 -2.76257
lowerneck -10.5935 -7.63822 -11.7962
upperneck 15.7159 -10.0601 10.465
head 7.72153 -4.58362 4.33449
rclavicle 1.1281e-014 2.76311e-014
rhumerus -24.9488 4.63134 -90.4688
rradius 28.3164
rwrist 10.3828
rhand -14.4761 15.9934
rfingers 7.12502
rthumb 11.67 -13.6616
lclavicle 1.1281e-014 2.76311e-014
lhumerus -38.3104 15.4761 77.3583
lradius 18.8019
lwrist -10.1576
lhand -11.8616 13.612
lfingers 7.12502
lthumb 14.1903 43.1073
rfemur 21.7627 4.56126 36.3615
rtibia -2.22639e-014
rfoot -6.11464 -12.5687
rtoes -13.2163
lfemur -30.2512 -11.9839 -7.1568
ltibia 24.8457
lfoot -15.6029 17.3031
ltoes -2.23234
